<svg xmlns="http://www.w3.org/2000/svg" xml:space="preserve" style="fill-rule:evenodd;clip-rule:evenodd" viewBox="0 0 64 64">
  <path d="m45.67 20.35-7.22 9.54A5.59 5.59 0 0 1 34 25.34l9.5-7 .12-.1 2.05 2.11ZM25.86 31.27l-8.3 6C11.9 36.73 9.17 32 10.17 28l8.65-4M32.28 37.87 26 46c-5.31-.48-8.12-3.37-8.44-8.7l8.3-6" style="fill:none;fill-rule:nonzero;stroke:#000;stroke-width:3px"/>
  <path d="m48.83 23.6-2.37 5.07-.76 1.62-10.77 23c-4.51 1-8.6-2-8.93-7.33l6.28-8.13 5.86-7.58.31-.4 7.22-9.54M34 25.34l-8.17 5.93c-4-1.41-6.41-3.78-7-7.25l9.65-4.41" style="fill:none;fill-rule:nonzero;stroke:#000;stroke-width:3px"/>
  <path d="m43.64 18.26-.12.1-9.5 7a8.506 8.506 0 0 1-5.55-5.73l11.4-5.21M43.47 35.06c-2.66-.22-4.33-2-5-5.17M38.76 44.55c-3.2-.34-5.22-2.82-6.48-6.68" style="fill:none;fill-rule:nonzero;stroke:#000;stroke-width:3px"/>
  <path d="m38.45 29.89-.31.4-5.86 7.58a8.015 8.015 0 0 1-6.41-6.6L34 25.34a5.59 5.59 0 0 0 4.45 4.55Z" style="fill:none;fill-rule:nonzero;stroke:#000;stroke-width:3px"/>
  <path d="m25.585 16.856-2.135-2.198-.79-.81-2-2.09-.69-.7-2.809-2.864a6.669 6.669 0 0 1 3.953-3.853 6.897 6.897 0 0 1 1.829-.247c3.785 0 6.9 3.114 6.9 6.9a6.9 6.9 0 0 1-.321 2.08 6.674 6.674 0 0 1-3.937 3.782Z" style="fill:#d12424;stroke:#000;stroke-width:3px;stroke-linecap:round;stroke-linejoin:round;stroke-miterlimit:1.5" transform="translate(22.84 6.525)"/>
</svg>
